<svg width="55" height="26" viewBox="0 0 55 26" fill="none" xmlns="http://www.w3.org/2000/svg">
<rect x="0.5" y="0.5" width="53.3281" height="25" rx="12.5" fill="#EC4899"/>
<g clip-path="url(#clip0_2213_11422)">
<path d="M13.6552 8.34321C13.8094 8.0783 14.1921 8.0783 14.3464 8.34321L15.6093 10.5114C15.6658 10.6085 15.7605 10.6773 15.8703 10.701L18.3226 11.2321C18.6223 11.297 18.7405 11.6609 18.5363 11.8895L16.8644 13.7606C16.7896 13.8444 16.7534 13.9557 16.7647 14.0674L17.0175 16.5639C17.0484 16.8689 16.7388 17.0938 16.4582 16.9702L14.1621 15.9584C14.0593 15.9131 13.9423 15.9131 13.8395 15.9584L11.5434 16.9702C11.2628 17.0938 10.9532 16.8689 10.9841 16.5638L11.2369 14.0674C11.2482 13.9557 11.212 13.8444 11.1372 13.7606L9.46533 11.8895C9.26107 11.6609 9.37933 11.297 9.67895 11.2321L12.1313 10.701C12.241 10.6773 12.3358 10.6085 12.3923 10.5114L13.6552 8.34321Z" fill="white"/>
</g>
<path d="M23.184 17.5H22.008V8.824H23.184L27.948 16.024H27.624V8.824H28.8V17.5H27.624L22.86 10.3H23.184V17.5ZM33.1605 17.644C32.5925 17.644 32.0885 17.516 31.6485 17.26C31.2085 16.996 30.8645 16.636 30.6165 16.18C30.3685 15.716 30.2445 15.18 30.2445 14.572C30.2445 13.956 30.3645 13.416 30.6045 12.952C30.8525 12.488 31.1885 12.124 31.6125 11.86C32.0445 11.596 32.5445 11.464 33.1125 11.464C33.6725 11.464 34.1565 11.584 34.5645 11.824C34.9805 12.064 35.3005 12.4 35.5245 12.832C35.7565 13.264 35.8725 13.772 35.8725 14.356V14.776L30.8445 14.788L30.8685 14.032H34.7445C34.7445 13.544 34.5965 13.152 34.3005 12.856C34.0045 12.56 33.6085 12.412 33.1125 12.412C32.7365 12.412 32.4125 12.496 32.1405 12.664C31.8765 12.824 31.6725 13.064 31.5285 13.384C31.3925 13.696 31.3245 14.072 31.3245 14.512C31.3245 15.216 31.4845 15.76 31.8045 16.144C32.1245 16.52 32.5845 16.708 33.1845 16.708C33.6245 16.708 33.9845 16.62 34.2645 16.444C34.5445 16.268 34.7325 16.012 34.8285 15.676H35.8845C35.7405 16.3 35.4325 16.784 34.9605 17.128C34.4885 17.472 33.8885 17.644 33.1605 17.644ZM38.1932 17.5L36.2732 11.632H37.4372L38.4092 14.68C38.4812 14.896 38.5452 15.12 38.6012 15.352C38.6572 15.576 38.7132 15.816 38.7692 16.072C38.8012 15.896 38.8372 15.728 38.8772 15.568C38.9252 15.4 38.9732 15.244 39.0212 15.1C39.0692 14.948 39.1132 14.808 39.1532 14.68L40.1372 11.632H41.2892L42.2612 14.68C42.2932 14.752 42.3212 14.848 42.3452 14.968C42.3772 15.08 42.4132 15.2 42.4532 15.328C42.4932 15.456 42.5292 15.584 42.5612 15.712C42.5932 15.84 42.6212 15.96 42.6452 16.072C42.6772 15.912 42.7092 15.76 42.7412 15.616C42.7812 15.464 42.8212 15.316 42.8612 15.172C42.9092 15.02 42.9612 14.856 43.0172 14.68L44.0012 11.632H45.1772L43.1732 17.5H42.1052L41.0852 14.356C40.9892 14.06 40.9092 13.8 40.8452 13.576C40.7892 13.344 40.7452 13.148 40.7132 12.988C40.6812 13.132 40.6332 13.312 40.5692 13.528C40.5132 13.736 40.4332 14.016 40.3292 14.368L39.3092 17.5H38.1932Z" fill="white"/>
<rect x="0.5" y="0.5" width="53.3281" height="25" rx="12.5" stroke="#DCF2D4"/>
<defs>
<clipPath id="clip0_2213_11422">
<rect width="10" height="10" fill="white" transform="translate(9 8)"/>
</clipPath>
</defs>
</svg>
